<svg xmlns="http://www.w3.org/2000/svg" xmlns:lucid="lucid" width="1101.89" height="1194.75"><g lucid:page-tab-id="0_0"><path d="M334.32 602.57c-1.66-2.87-1.66-7.52 0-10.4l104.13-179.6c1.66-2.87 5.7-5.2 9-5.2h208.3c3.3 0 7.35 2.33 9 5.2l104.14 179.6c1.65 2.88 1.65 7.53 0 10.4l-104.14 179.6c-1.66 2.88-5.7 5.2-9 5.2h-208.3c-3.3 0-7.35-2.32-9-5.2z" stroke="#5e5e5e" stroke-width="3" fill="#fff"/><path d="M211.3 347.37h500v500h-500v-500z" stroke="#000" stroke-opacity="0" stroke-width=".63" fill-opacity="0"/><path d="M413.3 528.88c-3 1.5-4 4-4 10.5v6h-6c-4 0-6.5.5-7.5 1-2 1-4 4-4 6s2 5 4 6c1 .5 3.5 1 7.5 1h6v8.5h-6c-4 0-6.5.5-7.5 1-2 1-4 4-4 6s2 5 4 6c1 .5 3.5 1 7.5 1h6v8.5h-6c-6.5 0-9 1-10.5 4-1 2-1 4 0 6 1.5 3 4 4 10.5 4h6v8.5h-6c-6.5 0-9 1-10.5 4-1 2-1 4 0 6 1.5 3 4 4 10.5 4h6v8.5h-6c-4 0-6.5.5-7.5 1-2 1-4 4-4 6s2 5 4 6c1 .5 3.5 1 7.5 1h6v6c0 6.5 1 9 4 10.5 2 1 4 1 6 0 3-1.5 4-4 4-10.5v-6h8.5v6c0 6.5 1 9 4 10.5 2 1 4 1 6 0 3-1.5 4-4 4-10.5v-6h8.5v6c0 6.5 1 9 4 10.5 2 1 4 1 6 0 3-1.5 4-4 4-10.5v-6h8.5v6c0 6.5 1 9 4 10.5 2 1 4 1 6 0 3-1.5 4-4 4-10.5v-6h8.5v6c0 6.5 1 9 4 10.5 2 1 4 1 6 0 3-1.5 4-4 4-10.5v-6h6c6.5 0 9-1 10.5-4 1-2 1-4 0-6-1.5-3-4-4-10.5-4h-6v-8.5h6c6.5 0 9-1 10.5-4 1-2 1-4 0-6-1.5-3-4-4-10.5-4h-6v-8.5h6c6.5 0 9-1 10.5-4 1-2 1-4 0-6-1.5-3-4-4-10.5-4h-6v-8.5h6c4 0 6.5-.5 7.5-1 2-1 4-4 4-6s-2-5-4-6c-1-.5-3.5-1-7.5-1h-6v-8.5h6c6.5 0 9-1 10.5-4 1-2 1-4 0-6-1.5-3-4-4-10.5-4h-6v-6c0-4-.5-6.5-1-7.5-1-2-4-4-6-4s-5 2-6 4c-.5 1-1 3.5-1 7.5v6h-8.5v-6c0-6.5-1-9-4-10.5-2-1-4-1-6 0-3 1.5-4 4-4 10.5v6h-8.5v-6c0-4-.5-6.5-1-7.5-1-2-4-4-6-4s-5 2-6 4c-.5 1-1 3.5-1 7.5v6h-8.5v-6c0-4-.5-6.5-1-7.5-1-2-4-4-6-4s-5 2-6 4c-.5 1-1 3.5-1 7.5v6h-8.5v-6c0-6.5-1-9-4-10.5-2-1-4-1-6 0zm-4 23.5v3h-5.5c-6.5 0-8-.5-8-3s1.5-3 8-3h5.5v3zm67.5 0v3h-53.5v-6h53.5v3zm22.5 0v3h-8.5v-6h8.5v3zm26.5-2c.5.5 1 1.5 1 2 0 2.5-1.5 3-7.5 3h-6v-6h6c4.5 0 6 0 6.5 1zm-94 13v4.5h-8.5v-8.5h8.5v4zm22.5 0v4.5h-8.5v-8.5h8.5v4zm22.5 0v4.5h-8.5v-8.5h8.5v4zm22.5 0v4.5h-8.5v-8.5h8.5v4zm-90 11.5v3h-5.5c-6.5 0-8-.5-8-3s1.5-3 8-3h5.5v3zm22.5 0v3h-8.5v-6h8.5v3zm67.5 0v3h-53.5v-6h53.5v3zm26.5-2c.5.5 1 1.5 1 2 0 2.5-1.5 3-7.5 3h-6v-6h6c4.5 0 6 0 6.5 1zm-94 13v4.5h-8.5v-8.5h8.5v4zm22.5 0v4.5h-8.5v-8.5h8.5v4zm22.5 0v4.5h-8.5v-8.5h8.5v4zm22.5 0v4.5h-8.5v-8.5h8.5v4zm-67.5 11.5v3h-17c-14.5 0-17.5 0-18-1-.5-.5-1-1.5-1-2s.5-1.5 1-2c.5-1 3.5-1 18-1h17v3zm22.5 0v3h-8.5v-6h8.5v3zm71.5-2c.5.5 1 1.5 1 2s-.5 1.5-1 2c-.5 1-4 1-29 1h-28.5v-6h28.5c25 0 28.5 0 29 1zm-94 13v4.5h-8.5v-8.5h8.5v4zm22.5 0v4.5h-8.5v-8.5h8.5v4zm22.5 0v4.5h-8.5v-8.5h8.5v4zm22.5 0v4.5h-8.5v-8.5h8.5v4zm-45 11.5v3h-28c-25 0-28.5 0-29.5-1-.5-.5-1-1.5-1-2s.5-1.5 1-2c1-1 4.5-1 29.5-1h28v3zm22.5 0v3h-8.5v-6h8.5v3zm49-2c.5.5 1 1.5 1 2s-.5 1.5-1 2c-.5 1-3 1-18 1h-17v-6h17c15 0 17.5 0 18 1zm-94 13v4.5h-8.5v-8.5h8.5v4zm22.5 0v4.5h-8.5v-8.5h8.5v4zm22.5 0v4.5h-8.5v-8.5h8.5v4zm22.5 0v4.5h-8.5v-8.5h8.5v4zm-90 11.5v3h-5.5c-6.5 0-8-.5-8-3s1.5-3 8-3h5.5v3zm67.5 0v3h-53.5v-6h53.5v3zm22.5 0v3h-8.5v-6h8.5v3zm26.5-2c.5.5 1 1.5 1 2 0 2.5-1.5 3-7.5 3h-6v-6h6c4.5 0 6 0 6.5 1z" stroke="#1aeb1a" stroke-width=".06" fill="#6767e7"/><path d="M616.34 437.37l-13.8 7.95-37.44 21.6-13.8 7.95v75l13.8 7.96 37.84 21.6 13.8 7.95 13.64-7.96 37.2-21.6 13.78-7.95v-75l-13.78-7.94-37.46-21.6zm-37.46 96.6v-43.2l37.46-21.75 37.45 21.75v43.2l-37.46 21.75z" stroke="#000" stroke-opacity="0" stroke-width="3.44" fill="#2a5ada"/><path d="M681.32 692.38c0 41.4-33.6 75-75 75s-75-33.6-75-75 33.6-75 75-75 75 33.6 75 75z" stroke="#000" stroke-opacity="0" stroke-width=".48"/><path d="M586.52 720.28z" stroke="#000" stroke-opacity="0" stroke-width=".48" fill-opacity="0"/><path d="M646.67 725.08h-.15c-.15.3-.3.45-.45.6.15-.15.45-.3.6-.6zM586.67 720.28z" stroke="#000" stroke-opacity="0" stroke-width=".48"/><path d="M659.57 686.53c-.15-8.25-3.15-15.15-8.7-21.15-12-12.45-31.95-12.9-44.55-.9-6.15-5.85-13.35-8.85-21.75-8.85-17.1 0-31.05 13.95-31.5 31.2v.3c0 13.2 4.8 24.9 9.15 32.85 1.95 3.6 3.75 6.45 6.15 9.75.9 1.2 1.5 2.1 2.1 2.85l.6.75.15.15.15.15.15.15c3.6 4.2 9.9 4.5 14.1.9 4.2-3.75 4.65-10.2.9-14.55l-.45-.45c-.3-.45-.75-1.05-1.5-1.95-1.8-2.55-3.15-4.8-4.65-7.5-3.6-6.6-6.6-14.7-6.6-22.95.15-6.3 5.25-11.25 11.55-11.1 6.15.15 10.95 5.1 11.1 11.25 0 1.5.45 3 1.2 4.35 1.5 3.9 4.95 6.45 9.3 6.45 5.55 0 10.05-4.35 10.2-10.05v-1.35c.15-6.15 5.4-11.1 11.7-10.95 6 .3 10.8 5.1 10.95 10.95 0 6.75-2.1 13.2-4.5 18.45-1.05 2.1-1.95 3.9-3.3 6-.45.75-.75 1.2-.9 1.5-.15.3-.3.3-.3.45l-.15.15c3.45-4.35 9.75-5.1 14.1-1.65 4.2 3.3 5.1 9 2.25 13.35h.15l.15-.15c.15-.3.3-.45.45-.75.3-.6.9-1.35 1.5-2.25 1.65-2.85 3-5.25 4.35-8.1 3-6.75 6.45-16.35 6.45-27v-.3z" stroke="#000" stroke-opacity="0" stroke-width=".48" fill="#fff"/><path d="M638.12 709.63c-3.3 0-6.15 1.35-8.1 3.9-3.45 4.5-2.55 10.8 1.95 14.25 4.5 3.3 10.8 2.4 14.1-1.95.15-.3.3-.45.6-.75 1.05-1.65 1.5-3.45 1.5-5.55 0-5.55-4.5-10.05-10.05-9.9z" stroke="#000" stroke-opacity="0" stroke-width=".48" fill="#b7e803"/><path d="M23 826.25c-1.65-2.86-1.65-7.5 0-10.38l71.5-123.3c1.65-2.87 5.7-5.2 9-5.2h143c3.3 0 7.35 2.33 9 5.2l71.5 123.3c1.65 2.87 1.65 7.52 0 10.38l-71.5 123.3c-1.65 2.88-5.7 5.2-9 5.2h-143c-3.3 0-7.35-2.32-9-5.2z" stroke="#5e5e5e" stroke-width="3" fill="#fff"/><path d="M45 691.06h260v260H45v-260z" stroke="#000" stroke-opacity="0" stroke-width=".07" fill-opacity="0"/><path d="M282.38 821.06c0 59.28-48.1 107.38-107.38 107.38-59.28 0-107.38-48.1-107.38-107.38 0-59.28 48.1-107.38 107.38-107.38 59.28 0 107.38 48.1 107.38 107.38z" stroke="#000" stroke-opacity="0" stroke-width=".07" fill="#4d4d4d"/><path d="M141.46 807.28l33.54-33.8 33.54 33.8 19.76-19.5-53.3-53.3-53.3 53.04 19.76 19.76zm-53.04 13.78l19.5-19.5 19.5 19.5-19.5 19.5-19.5-19.5zm53.04 13.78l33.54 33.8 33.54-33.8 19.76 19.5-53.3 53.3-53.3-53.04v-.26l19.76-19.5zm81.12-13.78l19.5-19.5 19.5 19.5-19.5 19.5-19.5-19.5z" stroke="#000" stroke-opacity="0" stroke-width=".07" fill="#f3ba2f"/><path d="M196.84 821.06L175 799.22l-16.12 16.12-1.82 1.82-3.9 3.9L175 842.9l21.84-21.84zm0 0z" stroke="#000" stroke-opacity="0" stroke-width=".07" fill="#f3ba2f"/><path d="M774.9 378.88c-1.66-2.87-1.66-7.52 0-10.38l71.5-123.3c1.65-2.88 5.68-5.2 9-5.2h143c3.3 0 7.34 2.32 9 5.2l71.5 123.3c1.65 2.86 1.65 7.5 0 10.38l-71.5 123.3c-1.66 2.87-5.7 5.2-9 5.2h-143c-3.32 0-7.35-2.33-9-5.2zM399.32 158.88c-1.66-2.87-1.66-7.52 0-10.38l71.5-123.3c1.65-2.88 5.68-5.2 9-5.2h143c3.3 0 7.34 2.32 9 5.2l71.5 123.3c1.65 2.86 1.65 7.5 0 10.38l-71.5 123.3c-1.66 2.87-5.7 5.2-9 5.2h-143c-3.32 0-7.35-2.33-9-5.2zM24.32 378.88c-1.66-2.87-1.66-7.52 0-10.38l71.5-123.3c1.65-2.88 5.68-5.2 9-5.2h143c3.3 0 7.34 2.32 9 5.2l71.5 123.3c1.65 2.86 1.65 7.5 0 10.38l-71.5 123.3c-1.66 2.87-5.7 5.2-9 5.2h-143c-3.32 0-7.35-2.33-9-5.2z" stroke="#5e5e5e" stroke-width="3" fill="#fff"/><path d="M979.47 338.77c-3.68-2.16-8.6-2.16-12.68 0l-30.1 17.64-20.24 11.17L887 385.2c-3.68 2.17-8.38 2.17-12.68 0l-22.9-13.85c-3.9-2.16-6.56-6.48-6.56-11.34v-26.63c0-4.32 2.25-8.64 6.55-11.16l22.92-13.5c3.68-1.97 8.6-1.97 12.68 0l23.12 14.05c3.68 1.98 6.34 6.3 6.34 11.16v17.65l20.25-11.7v-18.18c0-4.32-2.03-8.64-6.33-11.34l-42.75-25.02c-3.7-2.15-8.6-2.15-12.9 0l-43.77 25.57c-4.3 2.16-6.34 6.48-6.34 10.8v50.22c0 4.13 2.06 8.45 6.35 11.15l43.37 25.02c3.68 2.16 8.6 2.16 12.68 0l29.46-17.1 20.25-11.7 29.47-17.1c3.68-2.16 8.6-2.16 12.9 0l22.9 13.32c3.68 2.15 6.34 6.47 6.34 11.33v26.64c0 4.32-2.03 8.64-6.33 11.16l-22.5 13.5c-3.68 1.98-8.6 1.98-12.68 0l-23.13-13.5c-3.68-1.98-6.34-6.3-6.34-11.16v-17.1l-20.25 11.7v17.64c0 4.33 2.04 8.65 6.34 11.35l43.37 25.02c3.67 2.16 8.37 2.16 12.67 0l43.37-25.02c3.68-2.16 6.34-6.48 6.34-11.34v-50.75c0-4.14-2.05-8.46-6.34-11.16l-43.37-25.03z" stroke="#000" stroke-opacity="0" stroke-width="4.48" fill="#8247e5"/><path d="M175 260l-1.62 5.52v158.64l1.62 1.68 73.7-43.68L175 260z" stroke="#000" stroke-opacity="0" fill="#343434"/><path d="M175 260l-73.7 122.16 73.7 43.68V260z" stroke="#000" stroke-opacity="0" fill="#8c8c8c"/><path d="M175 439.76l-.88.96v56.64L175 500l73.7-103.92-73.7 43.68z" stroke="#000" stroke-opacity="0" fill="#3c3c3b"/><path d="M175 500v-60.24l-73.7-43.68L175 500z" stroke="#000" stroke-opacity="0" fill="#8c8c8c"/><path d="M175 425.84l73.7-43.68L175 348.8v77.04z" stroke="#000" stroke-opacity="0" fill="#141414"/><path d="M101.3 382.16l73.7 43.68V348.8l-73.7 33.36z" stroke="#000" stroke-opacity="0" fill="#393939"/><path d="M607.44 97.1c-.56-.56-1.12-1.3-1.12-2.44 0-.93.56-1.68 1.12-2.43 1.5-1.3 3.93-1.3 5.42 0 .75.75 1.3 1.5 1.3 2.43 0 1.13-.55 1.88-1.3 2.44-.74.75-1.68 1.12-2.6 1.12-.95.2-2.07-.18-2.82-1.12zM598.1 107.22c-.58-.75-.95-1.3-.95-2.44 0-.93.37-1.68.94-2.43 1.3-1.3 3.73-1.3 5.04 0 .56.75.93 1.5.93 2.43 0 1.13-.37 1.7-.93 2.44-.75.56-1.5 1.12-2.44 1.12-1.12 0-1.87-.56-2.6-1.12zM587.98 116.96c-.75-.56-1.12-1.5-1.12-2.43 0-1.13.37-1.88 1.12-2.63 1.3-1.3 3.56-1.3 4.87 0 .56.57 1.12 1.5 1.12 2.63 0 .93-.56 1.68-1.12 2.43-.75.75-1.5.94-2.44.94-1.1 0-1.86-.38-2.42-.94zM578.07 126.7c-.75-.56-1.13-1.5-1.13-2.43 0-1.12.38-1.7 1.13-2.44 1.5-1.3 3.93-1.3 5.42 0 .74.57 1.12 1.32 1.12 2.44 0 .94-.38 1.87-1.13 2.44-.76.76-1.7 1.13-2.63 1.13-.93 0-1.87-.2-2.8-1.12zM568.7 136.64c-.73-.75-.92-1.5-.92-2.63 0-.92.37-1.67.93-2.42 1.32-1.3 3.75-1.3 5.06 0 .75.56.94 1.5.94 2.43 0 1.14-.37 1.9-.94 2.64-.56.56-1.5.93-2.6.93-.76.2-1.9-.18-2.45-.93zM557.5 143.94c0-1.12.36-1.87.92-2.62 1.3-1.3 3.75-1.3 5.06 0 .74.75.93 1.5.93 2.62 0 .94-.36 1.7-.92 2.44-.57.56-1.5.94-2.44.94-1.12 0-1.87-.38-2.62-.94-.74-.56-.93-1.5-.93-2.44zM539.15 165.5c-.56-.57-.93-1.5-.93-2.44s.37-1.7.93-2.44c1.3-1.3 3.75-1.3 5.06 0 .75.75.94 1.5.94 2.44 0 .93-.37 1.68-.93 2.43-.56.74-1.5 1.12-2.6 1.12-.76.18-1.7-.2-2.45-1.13zM529.05 175.42c-.75-.75-1.12-1.5-1.12-2.62 0-.94.37-1.7 1.12-2.44 1.5-1.3 3.74-1.3 5.43 0 .75.75 1.12 1.5 1.12 2.44 0 1.12-.37 1.87-1.12 2.62-.75.75-1.7.94-2.62.94-1.12.2-2.06-.2-2.8-.94zM519.5 185.35c-.55-.56-.92-1.5-.92-2.62 0-.94.37-1.87.93-2.44 1.32-1.32 3.75-1.32 5.06 0 .56.56.94 1.5.94 2.43 0 1.12-.38 1.87-.94 2.62-.75.75-1.5.94-2.43.94-1.12 0-1.68-.38-2.62-.95zM509.78 195.1c-.75-.56-1.12-1.5-1.12-2.44 0-1.12.56-1.87 1.12-2.43 1.3-1.5 3.56-1.5 4.87 0 .74.56 1.12 1.3 1.12 2.43 0 .94-.38 1.88-1.12 2.44-.75.75-1.3 1.12-2.44 1.12-.92 0-1.86-.37-2.42-1.12zM499.68 204.84c-.75-.56-1.12-1.3-1.12-2.44 0-.93.37-1.68 1.12-2.43 1.5-1.3 3.74-1.3 5.05 0 .75.75 1.12 1.5 1.12 2.43 0 1.13-.37 1.88-1.12 2.44-.75.75-1.68 1.13-2.62 1.13-.92 0-1.86-.38-2.42-1.13zM489.95 214.77c-.75-.75-.93-1.5-.93-2.62 0-.94.37-1.7.93-2.44 1.3-1.3 3.74-1.3 5.05 0 .75.76.94 1.5.94 2.45 0 1.12-.38 1.87-.94 2.62-.56.56-1.5.94-2.62.94-.56.2-1.5-.18-2.43-.93zM495 97.1c.56-.56.94-1.3.94-2.44 0-.93-.38-1.68-.94-2.43-1.3-1.3-3.74-1.3-5.05 0-.75.75-.93 1.5-.93 2.43 0 1.13.37 1.88.93 2.44.56.75 1.5 1.12 2.43 1.12 1.13.2 2.06-.18 2.62-1.12zM504.73 107.22c.75-.75 1.12-1.3 1.12-2.44 0-.93-.37-1.68-1.12-2.43-1.5-1.3-3.74-1.3-5.42 0-.74.75-1.12 1.5-1.12 2.43 0 1.13.38 1.7 1.13 2.44.75.56 1.88 1.12 2.62 1.12 1.13-.18 2.06-.56 2.8-1.12zM514.65 116.96c.74-.56 1.12-1.5 1.12-2.43 0-1.13-.38-1.88-1.12-2.63-1.3-1.3-3.56-1.3-4.87 0-.56.57-1.12 1.5-1.12 2.63 0 .93.56 1.68 1.12 2.43.75.75 1.5.94 2.43.94.95 0 1.7-.38 2.45-.94zM524.56 126.7c.56-.56.94-1.5.94-2.43 0-1.12-.38-1.7-.94-2.44-1.3-1.3-3.74-1.3-5.05 0-.55.57-.92 1.32-.92 2.44 0 .94.37 1.87.93 2.44.76.76 1.5 1.13 2.63 1.13.75 0 1.68-.2 2.43-1.12zM534.1 136.64c.75-.75 1.3-1.5 1.3-2.63 0-.92-.55-1.67-1.3-2.42-1.3-1.3-3.74-1.3-5.05 0-.75.56-1.12 1.5-1.12 2.43 0 1.14.37 1.9 1.12 2.64.75.56 1.7.93 2.62.93.94.2 1.87-.18 2.43-.93zM545.14 143.94c0-1.12-.37-1.87-.93-2.62-1.3-1.3-3.74-1.3-5.05 0-.74.75-.93 1.5-.93 2.62 0 .94.37 1.7.93 2.44.57.56 1.5.94 2.44.94 1.1 0 1.86-.38 2.6-.94.75-.56.94-1.5.94-2.44zM553.93 156.3c.75-.74 1.13-1.5 1.13-2.43 0-1.12-.56-1.87-1.13-2.62-1.3-1.3-3.55-1.3-5.05 0-.56.75-.93 1.5-.93 2.62 0 .94.37 1.7.93 2.44.75.57 1.5 1.13 2.62 1.13.94 0 1.87-.56 2.43-1.12zM563.85 165.5c.56-.57 1.12-1.5 1.12-2.44s-.56-1.7-1.12-2.44c-1.5-1.3-3.93-1.3-5.24 0-.74.75-1.1 1.5-1.1 2.44 0 .93.36 1.68 1.1 2.43.76.74 1.88 1.12 2.63 1.12.75.18 1.87-.2 2.62-1.13zM573.76 175.42c.57-.75.94-1.5.94-2.62 0-.94-.37-1.7-.94-2.44-1.3-1.3-3.74-1.3-5.05 0-.55.75-.92 1.5-.92 2.44 0 1.12.37 1.87.93 2.62.76.75 1.5.94 2.45.94.74.2 1.87-.2 2.6-.94zM583.5 185.35c.55-.56 1.12-1.5 1.12-2.62 0-.94-.57-1.87-1.13-2.44-1.32-1.32-3.56-1.32-4.87 0-.75.56-1.12 1.5-1.12 2.43 0 1.12.38 1.87 1.13 2.62.56.75 1.3.94 2.43.94.94 0 1.68-.38 2.43-.95zM592.66 195.1c.75-.56 1.12-1.5 1.12-2.44 0-1.12-.37-1.87-1.12-2.43-1.3-1.5-3.55-1.5-4.86 0-.57.56-1.13 1.3-1.13 2.43 0 .94.56 1.88 1.13 2.44.74.75 1.5 1.12 2.43 1.12.93 0 1.87-.37 2.43-1.12zM603.14 204.84c.74-.56.93-1.3.93-2.44 0-.93-.37-1.68-.93-2.43-1.3-1.3-3.75-1.3-5.05 0-.76.75-.95 1.5-.95 2.43 0 1.13.37 1.88.94 2.44.73.75 1.48 1.13 2.6 1.13.94 0 1.88-.38 2.44-1.13zM612.86 214.77c.75-.75 1.3-1.5 1.3-2.62 0-.94-.55-1.7-1.3-2.44-1.3-1.3-3.74-1.3-5.05 0-.73.76-1.1 1.5-1.1 2.45 0 1.12.37 1.87 1.1 2.62.76.56 1.7.94 2.63.94.75.2 1.7-.18 2.43-.93zM518.2 99.9c9.92-6.55 20.95-9.55 33.1-9.73 11.8 0 22.84 3.18 33.13 9.74l21.14-20.98C588.92 66.37 571.15 60 551.3 60c-19.82 0-37.96 6.37-54.05 18.92l20.95 21zM497.06 186.48c-6.73-10.3-9.9-21.18-9.9-32.8 0-11.8 3.17-22.85 9.9-32.78l-20.77-21c-12.35 16.13-18.53 34.1-18.53 53.97 0 19.5 6.18 37.67 18.52 53.97l20.76-21.36zM584.24 207.46c-9.9 6.75-20.95 10.12-32.74 10.3-12.16 0-23.38-3.18-33.3-10.3l-21.14 21c16.28 12.73 34.42 19.1 54.44 18.9 19.65-.17 37.6-6.54 53.7-18.9l-20.96-21zM604.82 120.52c6.74 10.3 10.3 21.36 10.1 33.54-.18 11.62-3.55 22.3-10.1 32.04l21.14 21c12.54-16.12 18.9-33.93 18.9-53.6.18-19.86-6.18-38.04-18.9-54.34l-21.14 21.36zM626.9 214.02c8.04 0 14.78 6.56 14.78 14.8 0 8.06-6.55 14.8-14.78 14.8-8.05 0-14.78-6.55-14.78-14.8 0-8.24 6.54-14.8 14.78-14.8zM476.1 214.02c8.05 0 14.6 6.56 14.6 14.8 0 8.06-6.55 14.8-14.6 14.8-8.04 0-14.58-6.55-14.58-14.8 0-8.24 6.54-14.8 14.6-14.8zM627.08 63.2c8.05 0 14.78 6.54 14.78 14.8 0 8.23-6.73 14.8-14.78 14.8-8.04 0-14.6-6.57-14.6-14.8 0-8.26 6.56-14.8 14.6-14.8zM475.73 63.2c8.05 0 14.78 6.54 14.78 14.6 0 8.06-6.53 14.62-14.77 14.62-8.04 0-14.78-6.56-14.78-14.62 0-8.06 6.55-14.6 14.78-14.6z" stroke="#000" stroke-opacity="0" stroke-width="1.17" fill="#0d022b"/><path d="M399.6 1046.25c-1.65-2.86-1.65-7.5 0-10.38l71.5-123.3c1.66-2.87 5.7-5.2 9-5.2h143c3.32 0 7.35 2.33 9 5.2l71.5 123.3c1.66 2.87 1.66 7.52 0 10.38l-71.5 123.3c-1.65 2.88-5.68 5.2-9 5.2h-143c-3.3 0-7.34-2.32-9-5.2z" fill="#fff"/><path d="M415.5 1008.47l15.88-27.4m7.95-13.7l15.88-27.4m7.95-13.7l7.95-13.7 1.42-1.8 1.92-1.55 2.22-1.13 2.3-.64 1.14-.1H496m15.88 0h31.78m15.9 0h31.77m15.9 0h15.87l2.28.34 2.3.9 2.1 1.34 1.7 1.7.63.93 7.96 13.7m7.94 13.7l15.88 27.4m7.95 13.7l15.88 27.4m7.95 13.7l7.95 13.7.85 2.1.4 3.07-.4 3.1-.84 2.1-7.95 13.7m-7.94 13.7l-15.87 27.42m-7.95 13.7l-15.88 27.4m-7.94 13.7l-7.95 13.7-1.4 1.8-1.93 1.54-2.22 1.14-2.3.63-1.15.08h-15.88m-15.9 0h-31.77m-15.9 0H511.9m-15.9 0H480.1l-2.27-.32-2.3-.9-2.1-1.35-1.7-1.68-.63-.94-7.95-13.7m-7.94-13.7l-15.87-27.4m-7.95-13.7l-15.88-27.4m-7.94-13.7l-7.95-13.7-.84-2.1-.4-3.08.4-3.08.84-2.1v-.03l7.96-13.7" stroke="#5e5e5e" stroke-width="3" fill="none"/><path d="M774.32 826.25c-1.66-2.86-1.66-7.5 0-10.38l71.5-123.3c1.65-2.87 5.68-5.2 9-5.2h143c3.3 0 7.34 2.33 9 5.2l71.5 123.3c1.65 2.87 1.65 7.52 0 10.38l-71.5 123.3c-1.66 2.88-5.7 5.2-9 5.2h-143c-3.32 0-7.35-2.32-9-5.2z" fill="#fff"/><path d="M790.2 788.47l15.9-27.4m7.94-13.7l15.88-27.4m7.94-13.7l7.95-13.7 1.43-1.8 1.92-1.55 2.22-1.13 2.3-.64 1.14-.1h15.9m15.9 0h31.77m15.9 0h31.77m15.9 0h15.87l2.3.34 2.28.9 2.1 1.34 1.7 1.7.64.93 7.95 13.7m7.94 13.7l15.9 27.4m7.94 13.7l15.88 27.4m7.94 13.7l7.95 13.7.86 2.1.4 3.07-.4 3.1-.84 2.1-7.96 13.7m-7.94 13.7l-15.88 27.42m-7.95 13.7l-15.9 27.4m-7.93 13.7l-7.95 13.7-1.42 1.8-1.92 1.54-2.22 1.14-2.3.63-1.15.08h-15.87m-15.9 0h-31.77m-15.9 0H886.6m-15.9 0h-15.9l-2.26-.32-2.3-.9-2.1-1.35-1.7-1.68-.63-.94-7.94-13.7m-7.94-13.7l-15.88-27.4m-7.95-13.7l-15.9-27.4m-7.93-13.7l-7.95-13.7-.85-2.1-.4-3.08.4-3.08.84-2.1.02-.03 7.95-13.7" stroke="#5e5e5e" stroke-width="3" fill="none"/><path d="M271.9 426.66c-.68-3.24 1.4-6.42 4.66-7.1l43.65-8.98c3.25-.67 4.4 1.03 2.6 3.8l-4.4 6.68c-1.84 2.77-1.07 6.5 1.7 8.3l56.8 37.4c2.76 1.83 6.48 1.06 8.3-1.7l4.4-6.7c1.83-2.76 3.85-2.37 4.52.88l9 43.65c.66 3.23-1.43 6.4-4.68 7.07l-43.65 9c-3.25.67-4.4-1.03-2.6-3.8l4.4-6.68c1.84-2.78 1.07-6.5-1.7-8.33l-56.8-37.4c-2.76-1.8-6.48-1.04-8.3 1.73l-4.4 6.68c-1.83 2.77-3.85 2.38-4.52-.87zM694.52 686.66c-.67-3.24 1.42-6.42 4.67-7.1l43.64-8.98c3.24-.67 4.4 1.03 2.57 3.8l-4.38 6.68c-1.83 2.77-1.06 6.5 1.7 8.3l56.8 37.4c2.77 1.83 6.5 1.06 8.32-1.7l4.4-6.7c1.82-2.76 3.84-2.37 4.5.88l9 43.65c.67 3.23-1.42 6.4-4.67 7.07l-43.65 9c-3.24.67-4.4-1.03-2.58-3.8l4.4-6.68c1.83-2.78 1.06-6.5-1.7-8.33l-56.8-37.4c-2.77-1.8-6.5-1.04-8.32 1.73l-4.4 6.68c-1.82 2.77-3.84 2.38-4.5-.87zM547.07 271.62c2.35-2.35 6.14-2.35 8.5 0l31.5 31.5c2.35 2.36 1.56 4.25-1.76 4.25h-8c-3.3 0-6 2.7-6 6v68c0 3.32 2.7 6 6 6h8c3.33 0 4.12 1.9 1.77 4.25l-31.5 31.5c-2.36 2.36-6.15 2.36-8.5 0l-31.5-31.5c-2.36-2.35-1.57-4.25 1.74-4.25h8c3.33 0 6-2.68 6-6v-68c0-3.3-2.67-6-6-6h-8c-3.3 0-4.1-1.9-1.74-4.24zM547.07 771.62c2.35-2.34 6.14-2.34 8.5 0l31.5 31.52c2.35 2.34 1.56 4.24-1.76 4.24h-8c-3.3 0-6 2.7-6 6v68c0 3.3 2.7 6 6 6h8c3.33 0 4.12 1.9 1.77 4.24l-31.5 31.52c-2.36 2.34-6.15 2.34-8.5 0l-31.5-31.52c-2.36-2.34-1.57-4.24 1.74-4.24h8c3.33 0 6-2.7 6-6v-68c0-3.3-2.67-6-6-6h-8c-3.3 0-4.1-1.9-1.74-4.24zM827.7 427.82c3.23.7 5.28 3.9 4.57 7.15l-9.56 43.53c-.7 3.24-2.72 3.6-4.5.8l-4.32-6.73c-1.8-2.8-5.5-3.6-8.3-1.82l-57.27 36.65c-2.78 1.8-3.6 5.5-1.8 8.3l4.3 6.73c1.8 2.8.62 4.47-2.62 3.76l-43.53-9.57c-3.24-.7-5.3-3.9-4.58-7.14l9.56-43.55c.7-3.23 2.74-3.6 4.52-.8l4.32 6.74c1.78 2.78 5.5 3.6 8.28 1.8l57.28-36.64c2.8-1.8 3.6-5.5 1.82-8.3l-4.3-6.73c-1.8-2.8-.62-4.48 2.62-3.77zM399.15 674.58c3.24.7 5.3 3.9 4.58 7.15l-9.56 43.53c-.7 3.23-2.74 3.6-4.52.8l-4.3-6.73c-1.8-2.8-5.5-3.6-8.3-1.82l-57.28 36.66c-2.8 1.78-3.6 5.5-1.82 8.28l4.3 6.74c1.8 2.8.62 4.48-2.6 3.77l-43.54-9.56c-3.23-.72-5.28-3.92-4.57-7.16l9.56-43.53c.7-3.22 2.73-3.6 4.5-.8l4.32 6.74c1.8 2.8 5.5 3.6 8.3 1.82l57.27-36.65c2.78-1.77 3.6-5.48 1.8-8.27l-4.3-6.74c-1.8-2.8-.6-4.5 2.62-3.78z" stroke="#5e5e5e" stroke-width="3" fill="#fff"/></g></svg>