<?xml version="1.0" standalone="no"?>
<!DOCTYPE svg PUBLIC "-//W3C//DTD SVG 20010904//EN"
 "http://www.w3.org/TR/2001/REC-SVG-20010904/DTD/svg10.dtd">
<svg version="1.0" xmlns="http://www.w3.org/2000/svg"
 width="800.000000pt" height="800.000000pt" viewBox="0 0 800.000000 800.000000"
 preserveAspectRatio="xMidYMid meet">

<g transform="translate(0.000000,800.000000) scale(0.100000,-0.100000)"
fill="#000000" stroke="none">
<path d="M3228 5094 c-45 -24 -58 -62 -58 -169 l0 -95 -95 0 c-66 0 -105 -5
-125 -15 -32 -17 -60 -61 -60 -95 0 -34 28 -78 60 -95 20 -10 59 -15 125 -15
l95 0 0 -70 0 -70 -95 0 c-66 0 -105 -5 -125 -15 -32 -17 -60 -61 -60 -95 0
-34 28 -78 60 -95 20 -10 59 -15 125 -15 l95 0 0 -70 0 -70 -95 0 c-109 0
-146 -13 -170 -60 -19 -37 -19 -63 0 -100 24 -47 61 -60 170 -60 l95 0 0 -70
0 -70 -95 0 c-109 0 -146 -13 -170 -60 -19 -37 -19 -63 0 -100 24 -47 61 -60
170 -60 l95 0 0 -70 0 -70 -95 0 c-66 0 -105 -5 -125 -15 -32 -17 -60 -61 -60
-95 0 -34 28 -78 60 -95 20 -10 59 -15 125 -15 l95 0 0 -95 c0 -109 13 -146
60 -170 37 -19 63 -19 100 0 47 24 60 61 60 170 l0 95 70 0 70 0 0 -95 c0
-109 13 -146 60 -170 37 -19 63 -19 100 0 47 24 60 61 60 170 l0 95 70 0 70 0
0 -95 c0 -109 13 -146 60 -170 37 -19 63 -19 100 0 47 24 60 61 60 170 l0 95
70 0 70 0 0 -95 c0 -109 13 -146 60 -170 37 -19 63 -19 100 0 47 24 60 61 60
170 l0 95 70 0 70 0 0 -95 c0 -109 13 -146 60 -170 37 -19 63 -19 100 0 47 24
60 61 60 170 l0 95 95 0 c109 0 146 13 170 60 19 37 19 63 0 100 -24 47 -61
60 -170 60 l-95 0 0 70 0 70 95 0 c109 0 146 13 170 60 19 37 19 63 0 100 -24
47 -61 60 -170 60 l-95 0 0 70 0 70 95 0 c109 0 146 13 170 60 19 37 19 63 0
100 -24 47 -61 60 -170 60 l-95 0 0 70 0 70 95 0 c66 0 105 5 125 15 32 17 60
61 60 95 0 34 -28 78 -60 95 -20 10 -59 15 -125 15 l-95 0 0 70 0 70 95 0
c109 0 146 13 170 60 19 37 19 63 0 100 -24 47 -61 60 -170 60 l-95 0 0 95 c0
66 -5 105 -15 125 -17 32 -61 60 -95 60 -34 0 -78 -28 -95 -60 -10 -20 -15
-59 -15 -125 l0 -95 -70 0 -70 0 0 95 c0 109 -13 146 -60 170 -37 19 -63 19
-100 0 -47 -24 -60 -61 -60 -170 l0 -95 -70 0 -70 0 0 95 c0 66 -5 105 -15
125 -17 32 -61 60 -95 60 -34 0 -78 -28 -95 -60 -10 -20 -15 -59 -15 -125 l0
-95 -70 0 -70 0 0 95 c0 66 -5 105 -15 125 -17 32 -61 60 -95 60 -34 0 -78
-28 -95 -60 -10 -20 -15 -59 -15 -125 l0 -95 -70 0 -70 0 0 95 c0 109 -13 146
-60 170 -36 19 -67 19 -102 -1z m-58 -374 l0 -50 -94 0 c-100 0 -126 10 -126
50 0 40 26 50 126 50 l94 0 0 -50z m1080 0 l0 -50 -430 0 -430 0 0 50 0 50
430 0 430 0 0 -50z m360 0 l0 -50 -70 0 -70 0 0 50 0 50 70 0 70 0 0 -50z
m424 34 c9 -8 16 -24 16 -34 0 -40 -26 -50 -126 -50 l-94 0 0 50 0 50 94 0
c73 0 98 -4 110 -16z m-1504 -214 l0 -70 -70 0 -70 0 0 70 0 70 70 0 70 0 0
-70z m360 0 l0 -70 -70 0 -70 0 0 70 0 70 70 0 70 0 0 -70z m360 0 l0 -70 -70
0 -70 0 0 70 0 70 70 0 70 0 0 -70z m360 0 l0 -70 -70 0 -70 0 0 70 0 70 70 0
70 0 0 -70z m-1440 -180 l0 -50 -94 0 c-100 0 -126 10 -126 50 0 40 26 50 126
50 l94 0 0 -50z m360 0 l0 -50 -70 0 -70 0 0 50 0 50 70 0 70 0 0 -50z m1080
0 l0 -50 -430 0 -430 0 0 50 0 50 430 0 430 0 0 -50z m424 34 c9 -8 16 -24 16
-34 0 -40 -26 -50 -126 -50 l-94 0 0 50 0 50 94 0 c73 0 98 -4 110 -16z
m-1504 -214 l0 -70 -70 0 -70 0 0 70 0 70 70 0 70 0 0 -70z m360 0 l0 -70 -70
0 -70 0 0 70 0 70 70 0 70 0 0 -70z m360 0 l0 -70 -70 0 -70 0 0 70 0 70 70 0
70 0 0 -70z m360 0 l0 -70 -70 0 -70 0 0 70 0 70 70 0 70 0 0 -70z m-1080
-180 l0 -50 -274 0 c-236 0 -277 2 -290 16 -9 8 -16 24 -16 34 0 10 7 26 16
34 13 14 54 16 290 16 l274 0 0 -50z m360 0 l0 -50 -70 0 -70 0 0 50 0 50 70
0 70 0 0 -50z m1144 34 c9 -8 16 -24 16 -34 0 -10 -7 -26 -16 -34 -14 -14 -70
-16 -470 -16 l-454 0 0 50 0 50 454 0 c400 0 456 -2 470 -16z m-1504 -214 l0
-70 -70 0 -70 0 0 70 0 70 70 0 70 0 0 -70z m360 0 l0 -70 -70 0 -70 0 0 70 0
70 70 0 70 0 0 -70z m360 0 l0 -70 -70 0 -70 0 0 70 0 70 70 0 70 0 0 -70z
m360 0 l0 -70 -70 0 -70 0 0 70 0 70 70 0 70 0 0 -70z m-720 -180 l0 -50 -454
0 c-400 0 -456 2 -470 16 -9 8 -16 24 -16 34 0 10 7 26 16 34 14 14 70 16 470
16 l454 0 0 -50z m360 0 l0 -50 -70 0 -70 0 0 50 0 50 70 0 70 0 0 -50z m784
34 c9 -8 16 -24 16 -34 0 -10 -7 -26 -16 -34 -13 -14 -54 -16 -290 -16 l-274
0 0 50 0 50 274 0 c236 0 277 -2 290 -16z m-1504 -214 l0 -70 -70 0 -70 0 0
70 0 70 70 0 70 0 0 -70z m360 0 l0 -70 -70 0 -70 0 0 70 0 70 70 0 70 0 0
-70z m360 0 l0 -70 -70 0 -70 0 0 70 0 70 70 0 70 0 0 -70z m360 0 l0 -70 -70
0 -70 0 0 70 0 70 70 0 70 0 0 -70z m-1440 -180 l0 -50 -94 0 c-100 0 -126 10
-126 50 0 40 26 50 126 50 l94 0 0 -50z m1080 0 l0 -50 -430 0 -430 0 0 50 0
50 430 0 430 0 0 -50z m360 0 l0 -50 -70 0 -70 0 0 50 0 50 70 0 70 0 0 -50z
m424 34 c9 -8 16 -24 16 -34 0 -40 -26 -50 -126 -50 l-94 0 0 50 0 50 94 0
c73 0 98 -4 110 -16z"/>
</g>
</svg>
