<svg id="Moralis-Logo" xmlns="http://www.w3.org/2000/svg" viewBox="0 0 311.81 311.81"><defs><style>.cls-1{fill:none;}.cls-2{fill:#fff;}.cls-3{fill:#b7e803;}</style></defs><circle cx="155.91" cy="155.91" r="155.91"/><polygon class="cls-1" points="114.89 213.78 114.9 213.78 114.9 213.78 114.89 213.78"/><path d="M239.67,224l-.09-.06c-.3.46-.62.9-1,1.34C239,224.89,239.34,224.48,239.67,224Z"/><polygon points="114.91 213.8 114.91 213.79 114.92 213.81 114.91 213.8"/><path class="cls-2" d="M266.53,143.7A65.51,65.51,0,0,0,155.79,97.8a64.8,64.8,0,0,0-45-18.14c-35.65,0-64.68,28.87-65.55,64.83V145c0,27.35,9.95,51.69,19,68.38A190.29,190.29,0,0,0,77,233.65c1.75,2.43,3.24,4.36,4.32,5.73L82.67,241l.41.49.13.15.05.06,0,0h0a20.77,20.77,0,0,0,29.59,2,21.46,21.46,0,0,0,2-29.95l0,0h0v0l-.14-.17-.77-.94c-.71-.9-1.78-2.29-3.11-4.13A148,148,0,0,1,101,192.87c-7.31-13.45-13.75-30.38-13.82-47.58a23.62,23.62,0,0,1,47.23.24,21.35,21.35,0,0,0,2.33,9.17,21,21,0,0,0,40.58-7.38v-2.81a23.63,23.63,0,0,1,47.23,0c-.06,13.82-4.49,27.43-9.46,38.18a122.83,122.83,0,0,1-6.7,12.53c-.89,1.46-1.61,2.56-2.08,3.25-.23.35-.4.59-.49.72l-.08.1-.2.31a20.94,20.94,0,0,1,34,24.38l.09.06,0,0,0-.06.1-.14.3-.42c.24-.35.57-.81,1-1.39.78-1.16,1.84-2.78,3.09-4.81a165.56,165.56,0,0,0,9-16.84c6.4-13.84,13.35-33.83,13.35-56.12v-.51Z"/><path class="cls-3" d="M222,191.65a21,21,0,1,0,16.65,33.66c.33-.44.65-.88,1-1.34h0A20.93,20.93,0,0,0,222,191.65Z"/></svg>