<svg id="Moralis-Logo" xmlns="http://www.w3.org/2000/svg" viewBox="0 0 356.66 85.59"><defs><style>.cls-1{fill:none;}.cls-2{fill:#b7e803;}</style></defs><path d="M150.08,28.06a12,12,0,0,1,9.17,3.66,13.54,13.54,0,0,1,3.47,9.71v19.8h-10v-19a5.71,5.71,0,0,0-1.23-3.87A4.45,4.45,0,0,0,147.93,37a4.78,4.78,0,0,0-3.82,1.6A6.65,6.65,0,0,0,142.75,43v18.2h-10v-19a5.71,5.71,0,0,0-1.24-3.87A4.43,4.43,0,0,0,128,37a4.8,4.8,0,0,0-3.83,1.6A6.65,6.65,0,0,0,122.78,43v18.2h-9.94V29h10v3c1.82-2.57,4.79-3.87,8.91-3.87,3.87,0,6.76,1.42,8.71,4.26Q143.49,28.07,150.08,28.06Z"/><path d="M180.05,50.57a8.06,8.06,0,0,0,10.92,0,7.22,7.22,0,0,0,2.19-5.49A7.34,7.34,0,0,0,191,39.59a7.48,7.48,0,0,0-5.46-2.13,7.61,7.61,0,0,0-5.46,2.13,7.27,7.27,0,0,0-2.19,5.49A7.33,7.33,0,0,0,180.05,50.57Zm18,6.62a18.3,18.3,0,0,1-25,0,16.18,16.18,0,0,1-5.12-12.11A16.19,16.19,0,0,1,173,33a18.27,18.27,0,0,1,25,0,16.2,16.2,0,0,1,5.12,12.1A16.12,16.12,0,0,1,198,57.19Z"/><path d="M218.75,34.7A7.88,7.88,0,0,1,222.51,30a12.18,12.18,0,0,1,6.22-1.64v11a10.25,10.25,0,0,0-6.81,1.2c-2.12,1.18-3.15,3.23-3.15,6.17V61.23h-10V29h10V34.7Z"/><path d="M242.9,50.85a8.78,8.78,0,0,0,11.44,0,7.68,7.68,0,0,0,2.19-5.75,7.64,7.64,0,0,0-2.19-5.74,8.75,8.75,0,0,0-11.44,0,7.6,7.6,0,0,0-2.19,5.74A7.55,7.55,0,0,0,242.9,50.85ZM256.53,29h10V61.21h-10v-3c-2.35,2.63-5.66,3.94-9.9,3.94a14.9,14.9,0,0,1-11.24-4.93,17,17,0,0,1-4.67-12.11A17,17,0,0,1,235.39,33,14.91,14.91,0,0,1,246.63,28c4.26,0,7.55,1.32,9.9,3.95Z"/><rect x="273.8" y="14.12" width="9.98" height="47.11"/><path d="M291.1,61.23V29h10V61.21h-10Zm9.21-36.82a6.1,6.1,0,0,1-8.45,0,5.66,5.66,0,0,1,0-8.2,5.84,5.84,0,0,1,4.22-1.7,6,6,0,0,1,4.23,1.7,5.68,5.68,0,0,1,0,8.2Z"/><path d="M317.48,38.39c0,.64.56,1.18,1.7,1.59s2.49.81,4.08,1.22A34.26,34.26,0,0,1,328,42.78,9.58,9.58,0,0,1,332.13,46a9,9,0,0,1,1.69,5.59,9,9,0,0,1-4,7.91A17.29,17.29,0,0,1,320,62.14q-10.51,0-14.28-7.68l8.64-4.77c.88,2.53,2.77,3.81,5.66,3.81,2.39,0,3.59-.66,3.59-2,0-.63-.56-1.18-1.69-1.6a39.31,39.31,0,0,0-4.09-1.26A37.25,37.25,0,0,1,313,47,10.11,10.11,0,0,1,309,43.9a8.16,8.16,0,0,1-1.69-5.22A9.14,9.14,0,0,1,311,30.87a15.12,15.12,0,0,1,9.26-2.77,16,16,0,0,1,7.51,1.78A13.87,13.87,0,0,1,333.26,35l-8.5,4.44a4.94,4.94,0,0,0-4.47-2.84C318.42,36.57,317.48,37.17,317.48,38.39Z"/><polygon class="cls-1" points="45.46 59.84 45.46 59.84 45.46 59.84 45.46 59.84"/><path d="M85.4,63.12l0,0c-.09.14-.19.29-.3.43C85.18,63.39,85.3,63.26,85.4,63.12Z"/><polygon points="45.46 59.84 45.46 59.84 45.47 59.84 45.46 59.84"/><path d="M94,37.4A21,21,0,0,0,58.55,22.71,20.72,20.72,0,0,0,44.16,16.9a21.14,21.14,0,0,0-21,20.76v.16c0,8.76,3.19,16.55,6.09,21.89a60.85,60.85,0,0,0,4.08,6.49c.56.78,1,1.39,1.38,1.83l.42.52.13.15,0,.06h0v0h0a6.65,6.65,0,0,0,9.48.64,6.87,6.87,0,0,0,.65-9.58h0l0-.05-.25-.3c-.22-.29-.57-.74-1-1.33a45.32,45.32,0,0,1-3.16-5c-2.34-4.31-4.4-9.72-4.42-15.23A7.56,7.56,0,0,1,51.72,38a7,7,0,0,0,.74,2.93,6.71,6.71,0,0,0,13-2.36v-.9a7.56,7.56,0,0,1,15.11,0,30,30,0,0,1-3,12.23,38.41,38.41,0,0,1-2.14,4c-.28.47-.51.82-.66,1l-.16.23,0,0-.06.1a6.71,6.71,0,0,1,12,4.17,6.62,6.62,0,0,1-1.08,3.63l0,0h0l0-.05.09-.14.31-.44c.25-.37.59-.89,1-1.54a54.08,54.08,0,0,0,2.88-5.39,43.54,43.54,0,0,0,4.27-18V37.4Z"/><path class="cls-2" d="M79.74,52.75a6.71,6.71,0,1,0,5.33,10.78c.11-.14.21-.29.3-.43h0a6.62,6.62,0,0,0,1.08-3.63A6.72,6.72,0,0,0,79.74,52.75Z"/></svg>