<svg xmlns="http://www.w3.org/2000/svg" xmlns:xlink="http://www.w3.org/1999/xlink" width="25" height="25" viewBox="0 0 25 25">
  <defs>
    <clipPath id="clip-path">
      <rect id="Rectangle_240" data-name="Rectangle 240" width="25" height="25" transform="translate(407 554)" fill="#fff"/>
    </clipPath>
  </defs>
  <g id="Mask_Group_9" data-name="Mask Group 9" transform="translate(-407 -554)" clip-path="url(#clip-path)">
    <g id="respect" transform="translate(407 554)">
      <g id="Group_6374" data-name="Group 6374">
        <g id="Group_6373" data-name="Group 6373">
          <path id="Path_46983" data-name="Path 46983" d="M22.84,4.3a.489.489,0,1,0,.143.345A.491.491,0,0,0,22.84,4.3Z" fill="#fff"/>
        </g>
      </g>
      <g id="Group_6376" data-name="Group 6376">
        <g id="Group_6375" data-name="Group 6375">
          <path id="Path_46984" data-name="Path 46984" d="M11.625,15.8a.489.489,0,1,0,.143.345A.491.491,0,0,0,11.625,15.8Z" fill="#fff"/>
        </g>
      </g>
      <g id="Group_6378" data-name="Group 6378">
        <g id="Group_6377" data-name="Group 6377">
          <path id="Path_46985" data-name="Path 46985" d="M24.023,5.923a.488.488,0,1,0-.849.483,6.56,6.56,0,0,1-1.065,7.861l-.37.37a1.829,1.829,0,0,0-.417-.644L16.3,8.976a3.374,3.374,0,0,0,.9-.643l.962-.962a.488.488,0,1,0-.691-.691l-.962.962a2.378,2.378,0,0,1-1.692.7H12.895a.489.489,0,0,0-.345.143L11.077,9.959A1.122,1.122,0,0,1,9.491,8.373l3.362-3.362a6.572,6.572,0,0,1,7.8-1.1.488.488,0,1,0,.474-.854,7.575,7.575,0,0,0-4.644-.875A7.442,7.442,0,0,0,12.5,4,7.521,7.521,0,0,0,2.2,14.952l.184.184a.488.488,0,0,0,.105.079,1.836,1.836,0,0,0,1.833,1.7l.073,0c0,.025,0,.049,0,.074a1.839,1.839,0,0,0,1.84,1.839l.073,0c0,.025,0,.049,0,.074a1.839,1.839,0,0,0,1.84,1.839l.074,0a1.839,1.839,0,0,0,3.139,1.376l.682-.683.922.922A1.839,1.839,0,0,0,16.1,20.955l.092,0a1.837,1.837,0,0,0,1.838-1.913l.074,0a1.838,1.838,0,0,0,1.838-1.914l.074,0A1.839,1.839,0,0,0,21.72,16a.488.488,0,0,0,.132-.093l.947-.947A7.538,7.538,0,0,0,24.023,5.923ZM4.325,15.936a.864.864,0,0,1-.611-1.474l.842-.842a.864.864,0,1,1,1.221,1.221l-.842.842A.858.858,0,0,1,4.325,15.936Zm1.3,1.659a.863.863,0,0,1,0-1.221l.842-.842h0a.864.864,0,0,1,1.221,1.221l-.842.842A.865.865,0,0,1,5.627,17.6Zm1.912,1.912a.863.863,0,0,1,0-1.221l.842-.842h0A.864.864,0,1,1,9.6,18.665l-.842.842A.864.864,0,0,1,7.538,19.507Zm3.975,1.07-.842.842A.864.864,0,0,1,9.45,20.2l.842-.842h0a.864.864,0,0,1,1.221,1.221Zm9.118-4.672a.863.863,0,0,1-1.221,0l-2.033-2.033h0l-1.912-1.912a.488.488,0,0,0-.691.691L18.719,16.6A.864.864,0,1,1,17.5,17.817l-3.944-3.944a.488.488,0,0,0-.691.691l1.911,1.911h0l2.033,2.033a.864.864,0,1,1-1.221,1.221L13.554,17.7a.487.487,0,0,0-.125-.09l-.58-.58a.488.488,0,0,0-.691.691l2.72,2.72a.864.864,0,1,1-1.221,1.221l-1.035-1.035a1.841,1.841,0,0,0-1.72-2.5l-.074,0a1.838,1.838,0,0,0-1.838-1.914l-.074,0A1.838,1.838,0,0,0,7.079,14.3L7,14.3A1.839,1.839,0,0,0,3.866,12.93l-.842.842a1.839,1.839,0,0,0-.271.345A6.545,6.545,0,0,1,11.8,4.682l-3,3a2.1,2.1,0,0,0,2.967,2.967L13.1,9.32h1.721a3.42,3.42,0,0,0,.422-.027l5.391,5.391A.865.865,0,0,1,20.631,15.905Z" fill="#fff"/>
        </g>
      </g>
    </g>
  </g>
</svg>
