<svg xmlns="http://www.w3.org/2000/svg" xmlns:xlink="http://www.w3.org/1999/xlink" width="25" height="25" viewBox="0 0 25 25">
  <defs>
    <clipPath id="clip-path">
      <rect id="Rectangle_240" data-name="Rectangle 240" width="25" height="25" transform="translate(407 554)" fill="#fff"/>
    </clipPath>
  </defs>
  <g id="Mask_Group_7" data-name="Mask Group 7" transform="translate(-407 -554)" clip-path="url(#clip-path)">
    <g id="key" transform="translate(407 554)">
      <g id="Group_6370" data-name="Group 6370">
        <g id="Group_6369" data-name="Group 6369">
          <circle id="Ellipse_4140" data-name="Ellipse 4140" cx="1.562" cy="1.562" r="1.562" transform="translate(16.211 5.276)" fill="#fff"/>
        </g>
      </g>
      <g id="Group_6372" data-name="Group 6372">
        <g id="Group_6371" data-name="Group 6371">
          <path id="Path_46977" data-name="Path 46977" d="M24.73,8.1a14.247,14.247,0,0,0-3.072-4.83A13.918,13.918,0,0,0,16.864.261a3.926,3.926,0,0,0-4.165.883L8.864,4.961a3.908,3.908,0,0,0-.815,4.332c.2.453.42.9.654,1.323L.286,19.033A.977.977,0,0,0,0,19.723v4.3A.977.977,0,0,0,.977,25h4.3a.977.977,0,0,0,.977-.977V22.262H8.008a.977.977,0,0,0,.977-.977V19.528h1.758a.977.977,0,1,0,0-1.953H8.008a.977.977,0,0,0-.977.977v1.758H5.273a.977.977,0,0,0-.977.977v1.758H1.953V20.128l8.66-8.66a.977.977,0,0,0,.144-1.2A15.8,15.8,0,0,1,9.833,8.5a1.944,1.944,0,0,1,.408-2.154l3.835-3.817a1.97,1.97,0,0,1,2.09-.443,11.956,11.956,0,0,1,4.114,2.571,12.287,12.287,0,0,1,2.632,4.16,1.939,1.939,0,0,1-.438,2.084l-3.881,3.863a1.967,1.967,0,0,1-2.149.419,12.676,12.676,0,0,1-1.758-.9.977.977,0,0,0-1.022,1.665,14.636,14.636,0,0,0,2.029,1.035,3.914,3.914,0,0,0,4.277-.838l3.881-3.863A3.891,3.891,0,0,0,24.73,8.1Z" fill="#fff"/>
        </g>
      </g>
    </g>
  </g>
</svg>
